<svg width="78" height="69" viewBox="0 0 78 69" fill="none" xmlns="http://www.w3.org/2000/svg">
<path fill-rule="evenodd" clip-rule="evenodd" d="M77.8802 19.5727C77.8173 19.4466 77.7311 19.3316 77.6256 19.2329L75.2605 16.9622C74.9218 16.6504 74.424 16.5364 73.9664 16.666L69.7004 17.8589L64.7025 12.972L75.921 7.21307C76.5747 6.93561 76.8605 6.22211 76.5593 5.61968C76.4964 5.4936 76.4103 5.37863 76.3047 5.2799L73.1543 2.37573C72.8109 2.07153 72.3147 1.96417 71.8602 2.09601L57.6429 6.06148L52.8592 1.38025C51.6401 0.0807791 49.6555 -0.353407 47.9328 0.3025H47.8524C46.9127 0.659068 46.1129 1.25543 45.54 2.01143C44.6456 1.88329 43.7359 1.79075 42.832 1.7391C42.2408 1.7036 41.7329 2.15408 41.6974 2.74532C41.6619 3.33656 42.1123 3.84448 42.7036 3.87998C42.7969 3.88706 42.8902 3.89441 42.9834 3.90206C42.7493 4.05137 42.5647 4.27032 42.4708 4.53946C42.2441 5.1892 42.6316 5.88542 43.3365 6.09439C44.0237 6.30006 44.7109 6.53042 45.3981 6.76901C45.6049 7.06724 45.8475 7.34326 46.121 7.59172L51.1635 12.0014L49.7177 16.403C40.0907 10.0726 27.9147 9.456 17.9395 13.8204C17.9849 13.4773 17.8643 13.1185 17.5857 12.8718C17.1404 12.4777 16.4597 12.5193 16.0656 12.9646C15.4091 13.7139 14.7811 14.506 14.1959 15.3195C14.0722 15.4903 14.0062 15.6854 13.9943 15.8815C10.906 17.78 8.13277 20.2182 5.84916 23.1693C-4.23789 36.2048 -0.951548 54.3098 13.1894 63.6083C21.6863 69.1955 32.169 70.3317 41.3716 67.5206C41.9162 67.5179 42.4549 67.5064 42.9686 67.4572C43.4576 67.4264 43.8493 67.0723 43.9488 66.6162C44.9723 66.2089 45.9748 65.7504 46.9516 65.2414C46.8707 65.438 46.8473 65.6607 46.8976 65.8839C47.0277 66.4612 47.6012 66.8239 48.1786 66.6938C49.1491 66.4726 50.1268 66.2014 51.0759 65.8946C51.6307 65.6901 51.9148 65.0748 51.7105 64.5201C51.5169 63.9946 50.9508 63.707 50.4122 63.8608V63.8893C49.735 64.1132 49.0411 64.312 48.3464 64.4698C51.6622 62.5257 54.6356 59.9723 57.0579 56.8419C65.1019 46.4467 64.8212 32.4242 56.3667 22.3098L58.6515 18.5089L63.9528 23.1161L62.6765 27.0075C62.5228 27.4351 62.6437 27.9061 62.9889 28.2251C62.9889 28.2251 65.6039 30.611 65.6664 30.6932C66.2846 31.0236 67.0765 30.8294 67.435 30.2595L67.442 30.2483C67.4452 30.2431 67.4483 30.2378 67.4513 30.2325L70.9409 24.3337L77.2418 21.1662C77.8956 20.8886 78.1814 20.1751 77.8802 19.5727ZM31.529 13.4655C24.8128 13.4598 18.3378 15.6276 13.2105 19.5469C13.5284 19.8648 13.6227 20.3625 13.4094 20.7859C12.9741 21.6137 12.603 22.4772 12.2605 23.3478L12.2583 23.3533C12.0407 23.903 11.4186 24.172 10.8689 23.9544C10.3226 23.736 10.0548 23.1177 10.2694 22.5699C10.3632 22.3291 10.4603 22.0891 10.5605 21.8504C5.98139 26.3743 3.26241 32.2457 2.89817 38.443C5.20577 38.4594 7.42442 40.2796 10.0958 42.4713L10.1094 42.4825L10.1356 42.504L10.2258 42.5784C10.7352 42.5195 11.2279 42.8349 11.3756 43.3439C11.3982 43.4209 11.4212 43.498 11.4445 43.5749C14.9652 46.4116 19.4017 49.4862 25.353 49.2534C26.7908 49.2851 28.2214 49.0588 29.5655 48.587C29.5903 48.579 29.6088 48.5734 29.6271 48.5683C29.6184 48.5623 29.6099 48.5555 29.6012 48.5459C29.0122 47.8795 27.5039 46.9992 24.7283 45.8638C19.177 43.6014 18.1685 41.0098 19.5429 38.1468C20.7032 35.7363 23.7733 33.3257 27.0666 30.7424C29.3439 29.0616 31.491 27.2362 33.4924 25.2796C36.8838 21.7419 38.3743 17.8176 33.3139 13.5148C32.7189 13.4819 32.124 13.4655 31.529 13.4655ZM8.35123 44.276C8.81521 44.6579 9.2939 45.0519 9.78939 45.4498C9.94682 45.9037 10.114 46.3559 10.2909 46.805C10.5135 47.3587 11.1429 47.627 11.6967 47.4044C11.8321 47.35 11.9504 47.2712 12.0487 47.1752C15.5389 49.6741 19.831 51.8647 25.4601 51.6804C27.2959 51.7096 29.1186 51.3904 30.815 50.7425C31.5301 50.4511 32.0714 49.8861 32.2965 49.1958C32.4866 48.426 32.2454 47.6195 31.6539 47.0485C30.815 46.1024 28.9765 44.9835 25.8171 43.6836C22.0419 42.1452 21.2208 40.6478 21.9616 39.1176C22.7712 37.3711 25.2115 35.408 27.9363 33.2159L27.9371 33.2152L27.9439 33.2098C28.2202 32.9875 28.4994 32.7629 28.7801 32.5359C31.1586 30.764 33.3983 28.8397 35.4826 26.7769C39.2132 22.8608 41.132 18.591 37.339 13.918C41.5544 14.7123 45.5206 16.3746 48.9413 18.7802L46.8885 25.0246C46.7371 25.4524 46.8575 25.9223 47.2009 26.2422C47.2009 26.2422 50.5299 29.2862 50.637 29.3438C51.2552 29.6741 52.0471 29.4799 52.4056 28.91C52.4112 28.9012 52.4166 28.8921 52.4219 28.8831L55.0191 24.5556C56.5521 26.5511 57.7775 28.7329 58.6604 31.0386C59.0593 32.0744 59.3871 33.1324 59.6421 34.206C54.0284 36.8387 53.7785 38.7145 53.4394 41.2731L53.4388 41.2772C53.1355 43.5802 52.7388 46.5912 45.2999 52.3139C42.9159 53.9953 40.8888 56.0675 39.3203 58.4266C37.9528 60.6549 37.4789 63.2555 37.9816 65.7734C37.3555 65.9054 36.7295 66.0174 36.1044 66.1099C36.1101 66.079 36.1144 66.0476 36.1174 66.0157C36.1725 65.4245 35.7381 64.9005 35.1468 64.8452C34.2191 64.6882 33.2985 64.4884 32.4065 64.2172C31.8488 64.0211 31.2378 64.3143 31.0415 64.872C30.8453 65.4297 31.1386 66.0407 31.6963 66.237C31.7371 66.2514 31.779 66.2632 31.8213 66.2726C32.016 66.3278 32.2119 66.3816 32.4087 66.4339C18.9562 66.8076 6.65346 58.3915 3.54075 45.8396C3.13601 44.2073 2.89995 42.5434 2.8357 40.87C4.20058 40.87 5.95352 42.3085 8.09451 44.0654L8.35123 44.276ZM60.3204 39.9403H60.3293C60.3253 51.4068 52.3289 61.5727 40.5073 65.1399C40.1753 63.2117 40.5622 61.2366 41.6051 59.5373C43.0192 57.4437 44.8336 55.6041 46.9599 54.1074C55.1975 47.7725 55.6616 44.2349 56.0186 41.5117C56.2417 39.7922 56.4113 38.5088 60.0973 36.6412C60.2452 37.7356 60.3197 38.8375 60.3204 39.9403ZM70.6285 21.8489L69.4772 22.3754C69.2195 22.4933 69.012 22.6872 68.8882 22.9266L68.317 23.9962L66.0947 27.6984L65.4432 27.0402L66.7373 23.0994C66.8882 22.6377 66.7226 22.1379 66.3179 21.8324L59.2762 15.7197C58.7664 15.2579 57.9471 15.2647 57.4462 15.7347C57.4341 15.746 57.4225 15.7573 57.4109 15.7691C57.3217 15.8596 50.985 26.382 50.985 26.382L49.6017 25.1068L53.9213 11.9846C54.0761 11.5204 53.9101 11.016 53.5018 10.7094L47.8971 5.84716C47.2768 5.36279 47.0706 4.5625 47.3883 3.87265C47.673 3.27495 48.1929 2.79881 48.8431 2.53986H48.8877C49.6269 2.2768 50.4656 2.47507 50.9761 3.03349L56.331 8.24948C56.6672 8.58226 57.1795 8.70999 57.6519 8.57856L71.9316 4.60487L73.3149 5.88007L61.9804 11.6226C61.353 11.9381 61.1218 12.6629 61.4643 13.2411L61.4806 13.268C61.5342 13.3585 68.3616 20.0554 68.3616 20.0554C68.6999 20.3853 69.212 20.5097 69.6825 20.3762L73.9753 19.1833L74.6447 19.8003L70.6285 21.8489ZM37.5937 1.87477C38.185 1.81768 38.7106 2.25049 38.7677 2.84173C38.8247 3.43297 38.3919 3.95856 37.8007 4.01565C36.873 4.10842 35.9381 4.24401 35.0175 4.42241H34.8106L34.8177 4.45096C34.2265 4.50609 33.7025 4.07167 33.6474 3.48043C33.5923 2.88919 34.0267 2.36521 34.6179 2.31008C35.6027 2.1174 36.6018 1.97468 37.5937 1.87477ZM10.1467 26.6872C9.58864 26.4922 8.97813 26.7868 8.78313 27.3448C8.75423 27.4276 8.7355 27.5138 8.72765 27.601C8.51356 28.5787 8.34942 29.5706 8.22811 30.5626C8.15175 31.1427 8.5553 31.6767 9.13441 31.7615H9.27C9.81182 31.7618 10.2684 31.3574 10.3333 30.8195C10.4475 29.8918 10.6045 28.9569 10.8043 28.0506C10.9993 27.4925 10.7047 26.882 10.1467 26.6872ZM21.3509 58.4227C21.3286 58.4027 21.3055 58.3836 21.2816 58.3654C20.568 57.7731 19.8544 57.138 19.1978 56.4814C18.7807 56.0688 18.1092 56.0688 17.6921 56.4814C17.2746 56.8995 17.2746 57.5763 17.6921 57.9943C18.4057 58.708 19.1193 59.3716 19.9186 60.0139C20.358 60.4094 21.0349 60.3737 21.4304 59.9343C21.8258 59.4949 21.7903 58.8182 21.3509 58.4227ZM14.4799 50.4085C14.9581 51.2078 15.479 51.9928 16.0285 52.7492C16.3448 53.2145 16.2469 53.8452 15.8046 54.1927C15.3397 54.5579 14.6667 54.4773 14.3015 54.0124C13.7092 53.206 13.1526 52.3639 12.6388 51.5075L12.6375 51.5055L12.637 51.5047C12.3348 50.9966 12.5018 50.3397 13.0099 50.0375L13.0119 50.0361L13.0127 50.0357C13.5208 49.7335 14.1777 49.9004 14.4799 50.4085ZM10.3703 38.5511L10.37 38.5483C10.2558 37.6206 10.1773 36.6786 10.1416 35.7508C10.12 35.1596 9.62317 34.6981 9.03193 34.7197C8.44069 34.7412 7.97915 35.2381 8.00074 35.8293C8.00074 36.8284 8.11492 37.8346 8.24337 38.8266C8.31652 39.3454 8.7545 39.7348 9.27813 39.7472H9.44226C10.0289 39.6731 10.4444 39.1375 10.3703 38.5511ZM23.6628 7.77142C23.3279 7.31666 22.6974 7.20016 22.2221 7.50542C21.4015 8.06918 20.5951 8.6829 19.8244 9.31803C19.3691 9.69643 19.3068 10.3721 19.6852 10.8273C20.0636 11.2826 20.7392 11.3449 21.1945 10.9665C21.9081 10.3671 22.6646 9.79616 23.4353 9.26807C23.9115 8.91768 24.0132 8.24759 23.6628 7.77142ZM27.2492 6.90544C27.2507 6.9056 27.2523 6.90574 27.2538 6.90574H27.2324C27.2346 6.90574 27.2367 6.90548 27.2388 6.90528L27.24 6.90522C26.8273 6.90185 26.4524 6.66199 26.278 6.28706C26.0286 5.75112 26.2609 5.11439 26.797 4.86498C27.6962 4.41539 28.631 4.04431 29.5659 3.70177C29.6135 3.68089 29.6626 3.66341 29.7127 3.64967C30.2829 3.49303 30.872 3.82844 31.0284 4.39845C31.1851 4.96846 30.8499 5.55755 30.2795 5.71419C29.4017 6.03533 28.5311 6.39928 27.689 6.79891C27.5508 6.86588 27.3998 6.90171 27.2464 6.90517L27.2486 6.90538L27.2492 6.90544ZM71.9882 41.5204C71.4148 41.3746 70.8316 41.7213 70.6859 42.2947C70.4575 43.201 70.1792 44.1001 69.8652 44.9779C69.6791 45.5292 69.9674 46.1282 70.5146 46.3266C71.071 46.5263 71.6841 46.2369 71.8837 45.6804L71.8848 45.6772C72.2202 44.7353 72.5127 43.7719 72.7625 42.8227C72.9085 42.2493 72.5616 41.6663 71.9882 41.5204ZM72.7341 26.3237C72.9838 27.2871 73.1908 28.279 73.3549 29.2639C73.4493 29.8472 73.0532 30.3966 72.47 30.4913H72.2916C71.7789 30.4859 71.342 30.1179 71.2497 29.6135C71.0927 28.693 70.9 27.7652 70.6646 26.8661C70.5427 26.3191 70.8633 25.7706 71.3998 25.6087C71.9657 25.4376 72.5631 25.7578 72.7341 26.3237ZM69.3018 49.0171C69.3082 49.0204 69.3146 49.0238 69.321 49.0273L69.3319 49.0333L69.3493 49.0433C69.859 49.3427 70.0295 49.9987 69.73 50.5086C69.2447 51.3792 68.7166 52.2427 68.16 53.0705C67.8191 53.5552 67.1497 53.6719 66.665 53.331C66.1802 52.9901 66.0635 52.3207 66.4045 51.8359C66.9326 51.0652 67.425 50.2588 67.8745 49.4382C68.1589 48.9359 68.7903 48.7497 69.3018 49.0171ZM72.7333 33.4172C72.1423 33.4091 71.6565 33.8817 71.6483 34.4728C71.6482 34.4819 71.6481 34.4911 71.6482 34.5002L71.6486 34.5162V34.6375C71.6486 35.5723 71.6058 36.5143 71.5202 37.4492C71.4667 38.0379 71.9004 38.5587 72.4891 38.6122L72.4907 38.6124H72.5906C73.1553 38.6177 73.6268 38.1835 73.6682 37.6204C73.761 36.6285 73.8038 35.6223 73.8038 34.6232V34.4805C73.7999 33.8921 73.3217 33.4172 72.7333 33.4172ZM25.3134 61.1772C26.1198 61.6339 26.9547 62.0906 27.8039 62.5117C28.34 62.7639 28.57 63.403 28.3178 63.9389C28.0655 64.4749 27.4264 64.705 26.8905 64.4527C25.9842 64.0032 25.0922 63.5322 24.2287 63.0255C23.7182 62.7259 23.5473 62.0694 23.8469 61.559C24.1464 61.0486 24.803 60.8777 25.3134 61.1772ZM64.8007 55.626C64.3719 55.2344 63.7087 55.2561 63.3066 55.6754H63.3137C62.6715 56.389 61.9935 57.017 61.3013 57.6379C60.8599 58.032 60.8216 58.7094 61.2157 59.1508C61.6098 59.5921 62.2872 59.6305 62.7285 59.2364C63.4422 58.5727 64.1986 57.8662 64.8694 57.1383C65.2682 56.7016 65.2373 56.0245 64.8007 55.626ZM57.4274 60.5957C57.9349 60.2924 58.5922 60.4578 58.8955 60.9652C59.1989 61.4726 59.0334 62.1299 58.526 62.4333C57.6839 62.9686 56.8061 63.4752 55.9212 63.932C55.3951 64.2019 54.7496 63.9942 54.4797 63.4681C54.2098 62.942 54.4174 62.2965 54.9436 62.0266C55.7714 61.5698 56.5921 61.0988 57.377 60.5993V60.6278C57.3935 60.6166 57.4102 60.6059 57.4274 60.5957Z" fill="#49B3F7"/>
</svg>
