<svg width="1920" height="770" viewBox="0 0 1920 770" fill="none" xmlns="http://www.w3.org/2000/svg">
<path d="M0 0H1920V770H0V0Z" fill="url(#paint0_linear_318_37213)"/>
<path d="M155.797 456.226L83.4786 458.633C94.6009 593.957 199.372 636.46 249.971 644.429L242.227 567.118C242.227 567.118 178.762 555.784 155.797 456.226Z" fill="white"/>
<path d="M1741.8 144.226L1669.48 146.633C1680.6 281.957 1785.37 324.46 1835.97 332.429L1828.23 255.118C1828.23 255.118 1764.76 243.784 1741.8 144.226Z" fill="white"/>
<path d="M284.844 427.417L310.961 404.667C265.933 357.797 214.197 373.686 193.006 386.021L219.247 412.377C219.247 412.377 246.23 397.403 284.844 427.417Z" fill="white"/>
<path d="M1661.6 379.873L1687.72 357.122C1642.69 310.253 1590.96 326.142 1569.77 338.476L1596.01 364.833C1596.01 364.833 1622.99 349.858 1661.6 379.873Z" fill="white"/>
<path d="M1750.91 630.268L1745.06 664.407C1809.57 672.253 1839.61 627.234 1848.23 604.28L1811.24 600.449C1811.24 600.449 1799.8 629.11 1750.91 630.268Z" fill="white"/>
<path d="M1689.12 593.23L1705.36 562.634C1646.53 535.004 1603.92 568.371 1588.55 587.478L1622.49 602.686C1622.49 602.686 1642.32 579.039 1689.12 593.23Z" fill="white"/>
<path d="M1757.1 546.628L1771.59 555.855C1787.56 527.854 1772.74 505.478 1763.9 497.131L1755.04 513.314C1755.04 513.314 1765.96 524.045 1757.1 546.628Z" fill="white"/>
<path d="M232.217 202.639L248.456 197.038C236.474 167.113 209.733 164.794 197.696 166.522L204.857 183.521C204.857 183.521 220.048 181.656 232.217 202.639Z" fill="white"/>
<path d="M110.993 313.475L132.166 340.886C181.605 298.695 168.79 246.113 157.724 224.233L129.868 248.877C129.868 248.877 143.228 276.695 110.993 313.475Z" fill="white"/>
<defs>
<linearGradient id="paint0_linear_318_37213" x1="960" y1="-9" x2="960" y2="761" gradientUnits="userSpaceOnUse">
<stop stop-color="white"/>
<stop offset="1" stop-color="#EEF1FD"/>
</linearGradient>
</defs>
</svg>
